<svg width="18" height="16" viewBox="0 0 18 16" fill="none" xmlns="http://www.w3.org/2000/svg">
<path d="M0.375189 7.99996C0.375189 8.09942 0.414698 8.1948 0.485023 8.26513C0.555351 8.33545 0.650734 8.37496 0.750189 8.37496H16.3446L10.2349 14.4846C10.1645 14.555 10.125 14.6504 10.125 14.75C10.125 14.8495 10.1645 14.9449 10.2349 15.0153C10.3052 15.0856 10.4007 15.1252 10.5002 15.1252C10.5997 15.1252 10.6951 15.0856 10.7655 15.0153L17.5155 8.26528C17.5504 8.23045 17.578 8.18909 17.5969 8.14357C17.6158 8.09804 17.6255 8.04924 17.6255 7.99996C17.6255 7.95068 17.6158 7.90188 17.5969 7.85636C17.578 7.81084 17.5504 7.76948 17.5155 7.73465L10.7655 0.984652C10.7307 0.94981 10.6893 0.922173 10.6438 0.903317C10.5983 0.884461 10.5495 0.874756 10.5002 0.874756C10.4509 0.874756 10.4021 0.884461 10.3566 0.903317C10.3111 0.922173 10.2697 0.94981 10.2349 0.984652C10.2 1.01949 10.1724 1.06086 10.1535 1.10638C10.1347 1.1519 10.125 1.20069 10.125 1.24996C10.125 1.29924 10.1347 1.34803 10.1535 1.39355C10.1724 1.43907 10.2 1.48044 10.2349 1.51528L16.3446 7.62496H0.750189C0.650734 7.62496 0.555351 7.66447 0.485023 7.7348C0.414698 7.80512 0.375189 7.90051 0.375189 7.99996Z" fill="#171717"/>
</svg>
