<svg width="714" height="357" viewBox="0 0 714 357" fill="none" xmlns="http://www.w3.org/2000/svg">
<path d="M16.928 233.456V227.936L161.92 52.4H170.752L25.76 227.936L20.976 226.464H230.736V233.456H16.928ZM165.968 310V233.456V226.464V159.12H173.328V310H165.968ZM356.796 311.104C337.415 311.104 320.241 305.829 305.276 295.28C290.556 284.485 279.025 269.397 270.684 250.016C262.588 230.389 258.54 207.451 258.54 181.2C258.54 154.949 262.588 132.133 270.684 112.752C279.025 93.1253 290.556 78.0373 305.276 67.488C320.241 56.6933 337.415 51.296 356.796 51.296C376.423 51.296 393.596 56.6933 408.316 67.488C423.036 78.0373 434.444 93.1253 442.54 112.752C450.881 132.133 455.052 154.949 455.052 181.2C455.052 207.451 450.881 230.389 442.54 250.016C434.444 269.397 423.036 284.485 408.316 295.28C393.596 305.829 376.423 311.104 356.796 311.104ZM356.796 304.112C374.951 304.112 390.775 299.083 404.268 289.024C418.007 278.965 428.679 264.736 436.284 246.336C443.889 227.936 447.692 206.224 447.692 181.2C447.692 155.931 443.889 134.219 436.284 116.064C428.679 97.664 418.007 83.4347 404.268 73.376C390.775 63.3173 374.951 58.288 356.796 58.288C338.887 58.288 323.063 63.3173 309.324 73.376C295.585 83.4347 284.913 97.664 277.308 116.064C269.703 134.219 265.9 155.931 265.9 181.2C265.9 206.224 269.703 227.936 277.308 246.336C284.913 264.736 295.585 278.965 309.324 289.024C323.063 299.083 338.887 304.112 356.796 304.112ZM493.819 233.456V227.936L638.811 52.4H647.643L502.651 227.936L497.867 226.464H707.627V233.456H493.819ZM642.859 310V233.456V226.464V159.12H650.219V310H642.859Z" fill="#DD0452"/>
<path d="M264.066 170.19C264.066 170.19 261.667 37.2154 264.066 37.2156C266.466 37.2159 307 71.7336 307 71.7336" stroke="#FF005C" stroke-width="6" stroke-miterlimit="10" stroke-linecap="round"/>
<path d="M263.976 169.995L307.981 142.965" stroke="#FF005C" stroke-width="6" stroke-miterlimit="10" stroke-linecap="round"/>
<path d="M406 70.0654L451 36.7009" stroke="#FF005C" stroke-width="6" stroke-miterlimit="10" stroke-linecap="round"/>
<path d="M451 168.488L408.369 142.966" stroke="#FF005C" stroke-width="6" stroke-miterlimit="10" stroke-linecap="round"/>
<path d="M325.063 55.3044L311.827 38.7498" stroke="#FF005C" stroke-width="6" stroke-miterlimit="10" stroke-linecap="round"/>
<path d="M357.629 171.313L357.629 168.002" stroke="#FF005C" stroke-width="6" stroke-miterlimit="10" stroke-linecap="round"/>
<path d="M357.023 55.664L357.023 32.2523" stroke="#FF005C" stroke-width="6" stroke-miterlimit="10" stroke-linecap="round"/>
<path d="M387.467 55.429L400.703 38.8744" stroke="#FF005C" stroke-width="6" stroke-miterlimit="10" stroke-linecap="round"/>
<path d="M450.999 170.19V37.2156" stroke="#FF005C" stroke-width="6" stroke-miterlimit="10"/>
</svg>
