<svg width="16" height="16" viewBox="0 0 16 16" fill="none" xmlns="http://www.w3.org/2000/svg">
<path d="M7.99998 4.33337C8.44201 4.33337 8.86593 4.50897 9.17849 4.82153C9.49105 5.13409 9.66665 5.55801 9.66665 6.00004C9.66665 6.21891 9.62354 6.43564 9.53978 6.63785C9.45602 6.84006 9.33326 7.02379 9.17849 7.17855C9.02373 7.33332 8.83999 7.45608 8.63779 7.53984C8.43558 7.6236 8.21885 7.66671 7.99998 7.66671C7.55795 7.66671 7.13403 7.49111 6.82147 7.17855C6.50891 6.86599 6.33331 6.44207 6.33331 6.00004C6.33331 5.55801 6.50891 5.13409 6.82147 4.82153C7.13403 4.50897 7.55795 4.33337 7.99998 4.33337ZM7.99998 1.33337C9.23766 1.33337 10.4246 1.82504 11.2998 2.70021C12.175 3.57538 12.6666 4.76236 12.6666 6.00004C12.6666 9.50004 7.99998 14.6667 7.99998 14.6667C7.99998 14.6667 3.33331 9.50004 3.33331 6.00004C3.33331 4.76236 3.82498 3.57538 4.70015 2.70021C5.57532 1.82504 6.7623 1.33337 7.99998 1.33337ZM7.99998 2.66671C7.11592 2.66671 6.26808 3.0179 5.64296 3.64302C5.01784 4.26814 4.66665 5.11599 4.66665 6.00004C4.66665 6.66671 4.66665 8.00004 7.99998 12.4734C11.3333 8.00004 11.3333 6.66671 11.3333 6.00004C11.3333 5.11599 10.9821 4.26814 10.357 3.64302C9.73188 3.0179 8.88403 2.66671 7.99998 2.66671Z" fill="#D1034F" fill-opacity="0.7"/>
</svg>
